<svg width="64" height="64" viewBox="0 0 64 64" fill="none" xmlns="http://www.w3.org/2000/svg">
	<defs>
		<filter id="glow" x="-40%" y="-40%" width="180%" height="180%" color-interpolation-filters="sRGB">
			<feGaussianBlur stdDeviation="2.2" result="blur" />
			<feColorMatrix in="blur" type="matrix" values="0 0 0 0 0 0 0 0 0 0.949 0 0 0 0 1 0 0 0 0.95 0" />
			<feBlend in2="SourceGraphic" mode="screen" />
		</filter>
		<linearGradient id="panel" x1="8" y1="5" x2="58" y2="61" gradientUnits="userSpaceOnUse">
			<stop stop-color="#181818" />
			<stop offset="1" stop-color="#080808" />
		</linearGradient>
		<linearGradient id="cyanLine" x1="16" y1="14" x2="48" y2="43" gradientUnits="userSpaceOnUse">
			<stop stop-color="#00F2FF" />
			<stop offset="1" stop-color="#B600F8" />
		</linearGradient>
	</defs>

	<rect x="4" y="4" width="56" height="56" rx="12" fill="url(#panel)" />
	<rect x="5" y="5" width="54" height="54" rx="11" stroke="#FFFFFF" stroke-opacity="0.12" stroke-width="2" />

	<g filter="url(#glow)">
		<path d="M18 23.5C18 15.49 24.49 9 32.5 9C40.51 9 47 15.49 47 23.5C47 31.51 40.51 38 32.5 38" stroke="url(#cyanLine)" stroke-width="4" stroke-linecap="round" />
		<path d="M32.5 16V24L38 28" stroke="#00F2FF" stroke-width="3.5" stroke-linecap="round" stroke-linejoin="round" />
		<rect x="17" y="43" width="8" height="8" rx="2" fill="#00F2FF" />
		<rect x="28" y="43" width="8" height="8" rx="2" fill="#B600F8" />
		<rect x="39" y="43" width="8" height="8" rx="2" fill="#FF7A00" />
	</g>

	<rect x="49" y="18" width="4" height="18" rx="2" fill="#00F2FF" opacity="0.95" />
</svg>
